HIERARCHY
ROOT Hips
{
  OFFSET 0.849866 78.6569 -0.536788
  CHANNELS 6 Xposition Yposition Zposition Zrotation Xrotation Yrotation
  JOINT Bip01_Pelvis
  {
    OFFSET 0 0 0
    CHANNELS 6 Xposition Yposition Zposition Zrotation Xrotation Yrotation
    JOINT BN_Tail_01
    {
      OFFSET -5.52397 -0.332285 0
      CHANNELS 6 Xposition Yposition Zposition Zrotation Xrotation Yrotation
      JOINT BN_Tail_02
      {
        OFFSET 6.48885 -2.032e-005 0
        CHANNELS 6 Xposition Yposition Zposition Zrotation Xrotation Yrotation
        JOINT BN_Tail_03
        {
          OFFSET 7.08759 1.016e-005 -0.00261112
          CHANNELS 6 Xposition Yposition Zposition Zrotation Xrotation Yrotation
          End Site
          {
            OFFSET 0 0 0
          }
        }
      }
    }
    JOINT Bip01_Spine
    {
      OFFSET 4.02227 0.398968 0
      CHANNELS 6 Xposition Yposition Zposition Zrotation Xrotation Yrotation
      JOINT BN_UpperArm_R_01
      {
        OFFSET 4.84413 -3.22857 -3.65581
        CHANNELS 6 Xposition Yposition Zposition Zrotation Xrotation Yrotation
        JOINT BN_Forearm_R_01
        {
          OFFSET 8.51614 0 0
          CHANNELS 6 Xposition Yposition Zposition Zrotation Xrotation Yrotation
          JOINT BN_hand_R_01
          {
            OFFSET 10.1924 0 0
            CHANNELS 6 Xposition Yposition Zposition Zrotation Xrotation Yrotation
            JOINT BN_Finger_R_02
            {
              OFFSET 14.5949 -1.43855 0.585079
              CHANNELS 6 Xposition Yposition Zposition Zrotation Xrotation Yrotation
              End Site
              {
                OFFSET 0 0 0
              }
            }
            JOINT BN_Finger_R_01
            {
              OFFSET 14.4623 0 0
              CHANNELS 6 Xposition Yposition Zposition Zrotation Xrotation Yrotation
              End Site
              {
                OFFSET 0 0 0
              }
            }
          }
        }
      }
      JOINT BN_UpperArm_L_01
      {
        OFFSET 4.84412 -3.22858 3.65557
        CHANNELS 6 Xposition Yposition Zposition Zrotation Xrotation Yrotation
        JOINT BN_Forearm_L_01
        {
          OFFSET 8.51611 0 0
          CHANNELS 6 Xposition Yposition Zposition Zrotation Xrotation Yrotation
          JOINT BN_hand_L_01
          {
            OFFSET 10.1924 0 0
            CHANNELS 6 Xposition Yposition Zposition Zrotation Xrotation Yrotation
            JOINT BN_Finger_L_01
            {
              OFFSET 14.4623 0 0
              CHANNELS 6 Xposition Yposition Zposition Zrotation Xrotation Yrotation
              End Site
              {
                OFFSET 0 0 0
              }
            }
            JOINT BN_Finger_L_02
            {
              OFFSET 14.5949 1.43855 0.585071
              CHANNELS 6 Xposition Yposition Zposition Zrotation Xrotation Yrotation
              End Site
              {
                OFFSET 0 0 0
              }
            }
          }
        }
      }
      JOINT Bip01_R_Thigh
      {
        OFFSET -4.03411 -0.254132 -3.45377
        CHANNELS 6 Xposition Yposition Zposition Zrotation Xrotation Yrotation
        JOINT Bip01_R_Calf
        {
          OFFSET 3.92618 0 0
          CHANNELS 6 Xposition Yposition Zposition Zrotation Xrotation Yrotation
          JOINT Bip01_R_HorseLink
          {
            OFFSET 6.12319 0 0
            CHANNELS 6 Xposition Yposition Zposition Zrotation Xrotation Yrotation
            JOINT Bip01_R_Foot
            {
              OFFSET 9.94776 0 0
              CHANNELS 6 Xposition Yposition Zposition Zrotation Xrotation Yrotation
              JOINT Bip01_R_Toe3
              {
                OFFSET 0.881252 -0.110953 0.0158496
                CHANNELS 6 Xposition Yposition Zposition Zrotation Xrotation Yrotation
                JOINT Bip01_R_Toe31
                {
                  OFFSET 2.32137 0 0
                  CHANNELS 6 Xposition Yposition Zposition Zrotation Xrotation Yrotation
                  JOINT Bip01_R_Toe32
                  {
                    OFFSET 1.63293 0 0
                    CHANNELS 6 Xposition Yposition Zposition Zrotation Xrotation Yrotation
                    JOINT Bip01_R_Toe3Nub
                    {
                      OFFSET 1.72131 0 0
                      CHANNELS 6 Xposition Yposition Zposition Zrotation Xrotation Yrotation
                      End Site
                      {
                        OFFSET 0 0 0
                      }
                    }
                  }
                }
              }
              JOINT Bip01_R_Toe2
              {
                OFFSET 0.994751 0.967285 -1.09428
                CHANNELS 6 Xposition Yposition Zposition Zrotation Xrotation Yrotation
                JOINT Bip01_R_Toe21
                {
                  OFFSET 2.20201 0 0
                  CHANNELS 6 Xposition Yposition Zposition Zrotation Xrotation Yrotation
                  JOINT Bip01_R_Toe22
                  {
                    OFFSET 1.84925 0 0
                    CHANNELS 6 Xposition Yposition Zposition Zrotation Xrotation Yrotation
                    JOINT Bip01_R_Toe2Nub
                    {
                      OFFSET 1.70976 0 0
                      CHANNELS 6 Xposition Yposition Zposition Zrotation Xrotation Yrotation
                      End Site
                      {
                        OFFSET 0 0 0
                      }
                    }
                  }
                }
              }
              JOINT Bip01_R_Toe1
              {
                OFFSET 1.3748 1.34027 -0.0712419
                CHANNELS 6 Xposition Yposition Zposition Zrotation Xrotation Yrotation
                JOINT Bip01_R_Toe11
                {
                  OFFSET 2.26122 0 0
                  CHANNELS 6 Xposition Yposition Zposition Zrotation Xrotation Yrotation
                  JOINT Bip01_R_Toe12
                  {
                    OFFSET 2.22215 0 0
                    CHANNELS 6 Xposition Yposition Zposition Zrotation Xrotation Yrotation
                    JOINT Bip01_R_Toe1Nub
                    {
                      OFFSET 1.61867 0 0
                      CHANNELS 6 Xposition Yposition Zposition Zrotation Xrotation Yrotation
                      End Site
                      {
                        OFFSET 0 0 0
                      }
                    }
                  }
                }
              }
              JOINT Bip01_R_Toe0
              {
                OFFSET 1.40695 0.687986 0.883783
                CHANNELS 6 Xposition Yposition Zposition Zrotation Xrotation Yrotation
                JOINT Bip01_R_Toe01
                {
                  OFFSET 2.26828 0 0
                  CHANNELS 6 Xposition Yposition Zposition Zrotation Xrotation Yrotation
                  JOINT Bip01_R_Toe02
                  {
                    OFFSET 2.09769 0 0
                    CHANNELS 6 Xposition Yposition Zposition Zrotation Xrotation Yrotation
                    JOINT Bip01_R_Toe0Nub
                    {
                      OFFSET 1.53753 0 0
                      CHANNELS 6 Xposition Yposition Zposition Zrotation Xrotation Yrotation
                      End Site
                      {
                        OFFSET 0 0 0
                      }
                    }
                  }
                }
              }
            }
          }
        }
      }
      JOINT Bip01_L_Thigh
      {
        OFFSET -4.03411 -0.254147 3.45377
        CHANNELS 6 Xposition Yposition Zposition Zrotation Xrotation Yrotation
        JOINT Bip01_L_Calf
        {
          OFFSET 3.92616 0 0
          CHANNELS 6 Xposition Yposition Zposition Zrotation Xrotation Yrotation
          JOINT Bip01_L_HorseLink
          {
            OFFSET 6.1232 0 0
            CHANNELS 6 Xposition Yposition Zposition Zrotation Xrotation Yrotation
            JOINT Bip01_L_Foot
            {
              OFFSET 9.94775 0 0
              CHANNELS 6 Xposition Yposition Zposition Zrotation Xrotation Yrotation
              JOINT Bip01_L_Toe3
              {
                OFFSET 0.881246 -0.110986 -0.0157582
                CHANNELS 6 Xposition Yposition Zposition Zrotation Xrotation Yrotation
                JOINT Bip01_L_Toe31
                {
                  OFFSET 2.32136 0 0
                  CHANNELS 6 Xposition Yposition Zposition Zrotation Xrotation Yrotation
                  JOINT Bip01_L_Toe32
                  {
                    OFFSET 1.63293 0 0
                    CHANNELS 6 Xposition Yposition Zposition Zrotation Xrotation Yrotation
                    JOINT Bip01_L_Toe3Nub
                    {
                      OFFSET 1.7213 0 0
                      CHANNELS 6 Xposition Yposition Zposition Zrotation Xrotation Yrotation
                      End Site
                      {
                        OFFSET 0 0 0
                      }
                    }
                  }
                }
              }
              JOINT Bip01_L_Toe2
              {
                OFFSET 0.994649 0.967162 1.09447
                CHANNELS 6 Xposition Yposition Zposition Zrotation Xrotation Yrotation
                JOINT Bip01_L_Toe21
                {
                  OFFSET 2.202 0 0
                  CHANNELS 6 Xposition Yposition Zposition Zrotation Xrotation Yrotation
                  JOINT Bip01_L_Toe22
                  {
                    OFFSET 1.84926 0 0
                    CHANNELS 6 Xposition Yposition Zposition Zrotation Xrotation Yrotation
                    JOINT Bip01_L_Toe2Nub
                    {
                      OFFSET 1.70976 0 0
                      CHANNELS 6 Xposition Yposition Zposition Zrotation Xrotation Yrotation
                      End Site
                      {
                        OFFSET 0 0 0
                      }
                    }
                  }
                }
              }
              JOINT Bip01_L_Toe1
              {
                OFFSET 1.37483 1.34021 0.0715086
                CHANNELS 6 Xposition Yposition Zposition Zrotation Xrotation Yrotation
                JOINT Bip01_L_Toe11
                {
                  OFFSET 2.26124 0 0
                  CHANNELS 6 Xposition Yposition Zposition Zrotation Xrotation Yrotation
                  JOINT Bip01_L_Toe12
                  {
                    OFFSET 2.22214 0 0
                    CHANNELS 6 Xposition Yposition Zposition Zrotation Xrotation Yrotation
                    JOINT Bip01_L_Toe1Nub
                    {
                      OFFSET 1.61867 0 0
                      CHANNELS 6 Xposition Yposition Zposition Zrotation Xrotation Yrotation
                      End Site
                      {
                        OFFSET 0 0 0
                      }
                    }
                  }
                }
              }
              JOINT Bip01_L_Toe0
              {
                OFFSET 1.40707 0.688009 -0.883564
                CHANNELS 6 Xposition Yposition Zposition Zrotation Xrotation Yrotation
                JOINT Bip01_L_Toe01
                {
                  OFFSET 2.26828 0 0
                  CHANNELS 6 Xposition Yposition Zposition Zrotation Xrotation Yrotation
                  JOINT Bip01_L_Toe02
                  {
                    OFFSET 2.0977 0 0
                    CHANNELS 6 Xposition Yposition Zposition Zrotation Xrotation Yrotation
                    JOINT Bip01_L_Toe0Nub
                    {
                      OFFSET 1.53752 0 0
                      CHANNELS 6 Xposition Yposition Zposition Zrotation Xrotation Yrotation
                      End Site
                      {
                        OFFSET 0 0 0
                      }
                    }
                  }
                }
              }
            }
          }
        }
      }
      JOINT Bip01_Spine1
      {
        OFFSET 4.90674 -0.00437896 0
        CHANNELS 6 Xposition Yposition Zposition Zrotation Xrotation Yrotation
        JOINT Bip01_Neck
        {
          OFFSET 5.56447 -1.28357 0
          CHANNELS 6 Xposition Yposition Zposition Zrotation Xrotation Yrotation
          JOINT Bip01_Neck1
          {
            OFFSET 2.79308 -0.00219964 0
            CHANNELS 6 Xposition Yposition Zposition Zrotation Xrotation Yrotation
            JOINT Bip01_Head
            {
              OFFSET 2.79272 0 0
              CHANNELS 6 Xposition Yposition Zposition Zrotation Xrotation Yrotation
              JOINT BN_Mouth_01
              {
                OFFSET 4.19089 0.0665938 0
                CHANNELS 6 Xposition Yposition Zposition Zrotation Xrotation Yrotation
                End Site
                {
                  OFFSET 0 0 0
                }
              }
              JOINT Bip01_HeadNub
              {
                OFFSET 6.95118 0 0
                CHANNELS 6 Xposition Yposition Zposition Zrotation Xrotation Yrotation
                End Site
                {
                  OFFSET 0 0 0
                }
              }
            }
          }
        }
      }
    }
  }
}
MOTION
Frames:	3
Frame Time:	0.0333333
50.4934 66.4147 1.76201 -85.7941 -82.113 -27.1926 3.55271e-015 4.55636e-013 0 -89.9988 6.1813 -89.9988 -5.52397 -0.332268 1.77636e-015 20.0648 0.000137304 -178.895 6.48885 -7.62943e-006 -0.00301498 -41.9246 -0.00234727 1.08143 7.08758 1.02745e-011 -0.00296926 -33.4859 -0.00557514 1.15968 4.02121 0.398918 2.32832e-010 -16.2474 -6.98613 4.90023 4.84412 -3.2285 -3.65581 -81.2788 1.82228 34.4361 8.5161 1.90735e-006 2.84217e-014 36.3221 -0.000524078 18.9341 10.1924 3.33956e-013 -5.72204e-006 -22.9252 -34.8326 13.0599 14.5949 -1.43856 0.585079 -48.2681 -1.76857 58.0206 14.4623 3.81471e-006 -1.90735e-006 -2.99517 -0.00119228 56.6471 4.84412 -3.22853 3.65557 98.6949 1.83605 -145.554 8.51611 -1.90735e-006 7.62939e-006 -36.3221 0.000526038 18.9341 10.1924 4.61854e-013 -3.81469e-006 22.9252 34.8326 13.0599 14.4623 -7.10545e-015 -2.84217e-014 2.99515 0.00122254 56.6471 14.5949 1.43854 0.58507 48.2681 1.76858 58.0206 -3.42741 -1.07544 -3.91881 -83.7261 -0.48252 -166.478 3.92618 -3.8147e-006 1.42109e-014 0.202843 9.26365e-006 -2.46991e-007 6.12321 7.62941e-006 -3.73035e-014 36.7857 1.26918e-005 2.00202e-006 9.94776 3.81471e-006 0 1.58293 -1.68497 -12.4116 0.881246 -0.110956 0.0158117 97.5824 -2.51844 176.107 2.32137 3.81473e-006 0 41.38 7.64666e-006 3.56399e-006 1.63293 2.48693e-014 -1.42109e-014 -66.2912 -5.25775e-006 1.66501e-005 1.72129 -3.81477e-006 0 -9.68322e-006 1.09778e-005 1.51859e-006 0.994694 0.967275 -1.09432 80.5618 -6.74638 26.7045 2.20201 7.62947e-006 8.34465e-007 33.5972 2.13425e-006 -5.23434e-007 1.84926 3.81474e-006 2.38419e-007 21.6927 -1.36968e-005 6.82136e-006 1.70976 -7.6295e-006 5.96046e-007 -9.25081e-007 1.04225e-005 -1.53452e-006 1.37482 1.34026 -0.071305 78.0567 0.556694 -2.63479 2.26123 2.13165e-014 7.10543e-015 31.1828 -1.15211e-005 1.89946e-005 2.22213 -3.81474e-006 -2.38419e-007 -0.258787 1.3799e-006 6.9571e-007 1.61868 2.28885e-005 2.38418e-007 7.31656e-008 2.39861e-008 6.08806e-007 1.40698 0.687976 0.88372 86.7119 2.04163 -31.8369 2.26829 0 -7.10542e-015 26.1265 0.0125138 0.0254932 2.0977 3.81474e-006 -1.84741e-013 -12.2739 0.00518453 -0.0237744 1.53754 -7.62949e-006 1.42108e-014 -1.29389e-006 3.68643e-006 -9.74824e-007 -4.0125 -1.91714 2.91248 -119.525 -0.70154 -162.694 3.92615 1.42109e-014 9.53674e-007 -24.5414 -1.52953e-005 -7.15567e-006 6.12321 -7.62941e-006 -8.88178e-016 50.8041 6.42242e-006 -7.76861e-006 9.94777 -7.62942e-006 -1.79412e-013 16.4018 -5.74514 8.02543 0.88124 -0.110993 -0.0158165 106.522 3.07457 -176.548 2.32137 -1.43052e-006 1.42109e-014 44.4425 7.0225e-006 -7.49735e-006 1.63293 7.62949e-006 7.15256e-007 -43.5259 -1.99121e-006 -6.21174e-007 1.72131 4.76845e-007 4.76837e-007 179.96 -0.000265444 0.000481775 0.994711 0.967259 1.09433 49.8245 19.8319 -19.4253 2.20199 -3.81473e-006 7.62939e-006 63.0462 -1.19773e-006 3.62898e-006 1.84925 -2.84221e-013 7.62939e-006 33.6922 -2.92284e-006 6.92499e-007 1.70977 3.81476e-006 4.54747e-013 -179.96 -9.85948e-006 0.000372351 1.3748 1.34024 0.0713108 48.3039 -1.79255 2.00839 2.26122 3.81473e-006 -2.38419e-007 49.2911 8.25526e-006 3.8029e-006 2.22214 -1.90737e-006 -2.38419e-007 -8.50937 1.13896e-005 1.55564e-006 1.61869 0 -7.15256e-007 -179.96 -2.59855e-005 0.000371918 1.40698 0.687961 -0.883718 54.9954 -19.6435 25.6468 2.2683 0 -1.42108e-014 49.9345 1.12758e-005 -3.75477e-007 2.0977 -1.4211e-013 3.81469e-006 6.97058 1.41616e-005 8.51376e-006 1.53754 -3.81475e-006 -2.66453e-014 -179.96 -9.58867e-005 0.000371014 4.9071 -0.00430298 2.38458e-007 -10.7283 -1.6891 1.00419 5.56426 -1.28359 0.000254646 -10.7083 -1.87375 -4.98978 2.79365 -0.0019989 2.38412e-007 -18.0041 10.0343 -14.1434 2.79272 2.28882e-005 1.0516e-012 38.1994 4.94139 12.9212 4.19086 0.0665665 -1.36449e-010 -177.426 -0.0544281 -179.999 6.95116 -2.28882e-005 1.90958e-014 -4.41086e-006 1.00115e-005 4.36852e-008 
49.76 60.7099 2.22672 -92.5241 -81.8898 -24.9896 -7.10543e-015 4.54747e-013 0 -89.9988 6.18131 -89.9988 -5.52397 -0.332268 2.66454e-015 17.9984 -0.000366184 179.321 6.48885 -7.62943e-006 -0.00301498 -39.7422 -0.00171525 -0.651086 7.08758 1.9611e-012 -0.00296926 -31.154 0.0125688 -0.609591 4.02121 0.398918 2.32832e-010 -15.7385 -6.53204 5.12696 4.84412 -3.2285 -3.65581 -81.1335 0.730103 38.002 8.5161 1.90735e-006 3.55271e-015 36.3224 0.000856904 -21.3434 10.1924 2.91323e-013 -5.72204e-006 -34.8819 -26.0244 -12.8983 14.5949 -1.43856 0.585079 -48.1484 -2.31961 52.2048 14.4623 3.81471e-006 -1.90735e-006 -2.99435 -0.000218761 50.8224 4.84412 -3.22853 3.65557 98.849 0.742849 -141.987 8.51611 -1.90735e-006 7.62939e-006 -36.3224 -0.00085834 -21.3434 10.1924 0 -3.81469e-006 34.8819 26.0244 -12.8983 14.4623 -1.42109e-014 -8.88178e-015 2.99437 0.000222198 50.8224 14.5949 1.43854 0.585069 48.1483 2.31962 52.2048 -3.42551 -1.07092 -3.92145 -84.0366 1.48959 -167.316 3.92618 -3.8147e-006 8.88179e-015 -12.6678 8.96768e-006 2.01581e-006 6.12321 7.62941e-006 -1.95399e-014 46.9752 5.66718e-006 -7.29535e-006 9.94776 3.81471e-006 -5.32907e-015 9.69282 -1.35914 -12.8516 0.881245 -0.110956 0.0158117 94.4146 -2.29423 175.988 2.32137 3.81473e-006 0 41.38 7.50284e-006 3.54895e-006 1.63293 3.7304e-014 -1.42109e-014 -23.5855 5.4177e-006 1.59084e-005 1.7213 -3.81476e-006 1.06581e-014 3.34545e-007 1.09778e-005 5.18599e-007 0.994693 0.967275 -1.09432 86.573 -3.69711 27.2507 2.20201 7.62947e-006 8.34465e-007 19.5303 5.04964e-006 8.88718e-006 1.84926 3.81474e-006 2.38419e-007 21.6927 -1.35228e-005 6.94203e-006 1.70976 -7.6295e-006 5.96046e-007 -9.25081e-007 1.04225e-005 -1.53452e-006 1.37482 1.34026 -0.071305 85.9239 0.191136 -2.68315 2.26123 1.4211e-014 3.55271e-015 31.1828 -1.11543e-005 1.86679e-005 2.22212 -3.81474e-006 -2.38419e-007 -25.8809 1.88705e-006 1.22548e-006 1.61868 2.28885e-005 2.38418e-007 7.31656e-008 2.39861e-008 6.08806e-007 1.40698 0.687976 0.88372 94.3192 -2.68651 -31.7959 2.26829 0 -7.10542e-015 26.1269 0.010936 0.0222758 2.0977 3.81474e-006 -3.33955e-013 -44.9343 0.0113861 -0.011396 1.53754 -7.62952e-006 7.10542e-015 -1.29389e-006 3.68643e-006 2.51683e-008 -4.0389 -1.85839 2.91405 -108.514 2.66848 -163.25 3.92615 2.84217e-014 9.53674e-007 -6.20135 -1.67379e-005 -1.95324e-006 6.12321 -7.62941e-006 0 59.792 5.02504e-006 -8.61178e-006 9.94777 -7.62943e-006 -1.9007e-013 19.6636 -2.94296 10.0947 0.881239 -0.110993 -0.0158165 91.1995 2.06763 -175.865 2.32137 -1.43053e-006 0 -8.56926 8.48204e-006 1.08372e-005 1.63293 7.62947e-006 7.15256e-007 -44.0325 -1.77812e-006 -3.15171e-008 1.72131 4.76844e-007 4.76837e-007 179.96 -0.000265444 0.000481775 0.994711 0.967259 1.09433 48.1707 20.3692 -18.857 2.20199 -3.81473e-006 7.62939e-006 -6.62834 -1.10058e-006 9.02183e-006 1.84926 -1.10135e-012 7.62939e-006 -6.19362 -1.99681e-006 9.1898e-006 1.70978 3.81473e-006 0 -179.96 -9.86144e-006 0.000372346 1.3748 1.34024 0.0713108 47.9811 -1.80286 1.99914 2.26121 3.81473e-006 -2.38419e-007 -12.8091 1.38543e-006 -6.86664e-007 2.22215 -1.90737e-006 -2.38419e-007 -35.7719 1.04374e-005 7.18712e-006 1.61869 1.73197e-014 -7.15256e-007 -179.96 -2.59827e-005 0.000371917 1.40698 0.687961 -0.883718 53.735 -20.2089 25.2175 2.2683 0 -1.24345e-014 -17.719 2.92592e-006 1.51069e-005 2.09771 6.18178e-013 3.81469e-006 -19.7855 6.57462e-006 1.46306e-005 1.53754 -3.81475e-006 -1.77635e-014 -179.96 -9.58736e-005 0.000371014 4.9071 -0.00430298 2.3846e-007 -11.5349 -1.29752 1.21836 5.56426 -1.28359 0.000254648 -11.4271 -2.90263 -4.08358 2.79365 -0.0019989 2.38417e-007 -18.6353 9.34647 -12.4701 2.79272 2.28882e-005 8.52651e-013 32.1311 2.48748 14.7044 4.19086 0.0665665 -5.1632e-010 -177.216 -0.0449219 -179.999 6.95116 -2.28882e-005 8.08242e-014 -4.41086e-006 1.00115e-005 4.36852e-008 
48.731 56.0141 2.59338 -100.178 -81.5203 -24.5343 7.10543e-015 4.55636e-013 -7.10543e-015 -89.9988 6.18129 -89.9988 -5.52397 -0.332268 -8.88178e-016 15.683 -0.00018293 177.486 6.48885 -7.62943e-006 -0.00301498 -37.3076 -0.0026377 -2.49623 7.08758 -4.93117e-012 -0.00296926 -28.5615 0.00344075 -2.39547 4.02121 0.398918 2.32832e-010 -14.7598 -5.43703 5.22526 4.84412 -3.2285 -3.65581 -80.8496 0.17278 45.6265 8.5161 1.90735e-006 1.77636e-014 36.3223 0.000338912 -42.7079 10.1924 2.77112e-013 -5.72204e-006 -37.343 -13.7223 -33.4531 14.5949 -1.43856 0.585079 -48.4585 -2.99083 41.9784 14.4623 3.81471e-006 -1.90735e-006 -2.99449 -0.000502104 40.6142 4.84412 -3.22853 3.65557 99.1442 0.180228 -134.365 8.51611 -1.90735e-006 7.62939e-006 -36.3223 -0.000324003 -42.7079 10.1924 2.13163e-014 -3.81469e-006 37.343 13.7223 -33.4531 14.4623 1.42109e-014 7.10542e-015 2.99447 0.000491239 40.6142 14.5949 1.43854 0.585069 48.4585 2.99084 41.9784 -3.44638 -1.07543 -3.90224 -83.7601 4.56827 -169.199 3.92618 -3.8147e-006 2.66454e-015 -29.7042 7.81956e-006 4.39648e-006 6.12321 7.62941e-006 7.10543e-015 55.1848 4.94405e-006 -8.36785e-006 9.94775 3.81471e-006 -3.55271e-015 12.1018 3.27163 -13.7925 0.881245 -0.110956 0.0158117 92.8562 -2.17102 175.941 2.32137 3.81474e-006 -7.10543e-015 41.38 8.51335e-006 3.21508e-006 1.63293 2.48693e-014 7.10543e-015 -2.53931 1.03831e-005 3.14925e-006 1.7213 -3.81475e-006 3.55271e-015 3.34573e-007 1.09778e-005 5.18596e-007 0.994693 0.967276 -1.09432 89.5197 -2.17894 27.4039 2.20201 7.62948e-006 8.34465e-007 12.5976 3.2003e-006 9.79695e-006 1.84926 3.81474e-006 2.38419e-007 21.6927 -1.49295e-005 6.51326e-006 1.70976 -7.6295e-006 5.96046e-007 -9.25081e-007 1.04225e-005 -1.53452e-006 1.37482 1.34026 -0.071305 89.8006 0.00963343 -2.69072 2.26123 7.1055e-015 3.55271e-015 31.1828 -1.64151e-005 1.01593e-005 2.22212 -3.81475e-006 -2.38419e-007 -38.5073 2.36977e-006 1.50626e-006 1.61868 2.28885e-005 2.38418e-007 7.31656e-008 2.39861e-008 6.08806e-007 1.40698 0.687976 0.88372 98.0845 -5.00416 -31.5428 2.26829 7.1055e-015 7.10542e-015 26.1272 0.00938812 0.0191193 2.0977 3.81474e-006 -3.12639e-013 -61.0221 0.010558 -0.00583584 1.53753 -7.62954e-006 -7.10542e-015 -1.29389e-006 3.68643e-006 2.51714e-008 -4.07211 -1.73133 2.94594 -91.7394 7.74668 -167.183 3.92615 -1.42109e-014 9.53674e-007 -0.321843 -1.68481e-005 -2.09176e-007 6.12321 -7.62941e-006 0 67.1203 3.86189e-006 -9.29526e-006 9.94777 -7.62943e-006 -2.03393e-013 20.5897 -2.59103 9.49617 0.881239 -0.110993 -0.0158165 76.1942 0.940112 -175.473 2.32137 -1.43053e-006 3.55271e-015 -60.5517 5.40624e-006 8.24097e-006 1.63293 7.62951e-006 7.15256e-007 -44.5294 -1.63985e-006 -7.69994e-007 1.7213 4.76847e-007 4.76837e-007 179.96 -0.000265443 0.000481775 0.994711 0.967259 1.09433 46.538 20.8811 -18.2821 2.20199 -3.81473e-006 7.62939e-006 -74.95 2.6015e-006 -4.20387e-006 1.84925 -1.17952e-012 7.62939e-006 -45.3051 1.39707e-007 -3.12081e-006 1.70977 3.81477e-006 0 -179.96 -9.86546e-006 0.000372347 1.3748 1.34024 0.0713108 47.6646 -1.81294 1.99001 2.26121 3.81473e-006 -2.38419e-007 -73.7037 2.28163e-006 2.13241e-006 2.22214 -1.90738e-006 -2.38419e-007 -62.5053 -3.50416e-006 1.44958e-005 1.61867 1.42112e-014 -7.15256e-007 -179.96 -2.59837e-005 0.000371917 1.40698 0.687961 -0.883718 52.4903 -20.7546 24.7823 2.2683 0 -7.10542e-015 -84.0591 -7.5634e-006 1.18126e-005 2.0977 6.75026e-013 3.81469e-006 -46.0222 6.02837e-006 1.94506e-005 1.53753 -3.81478e-006 -1.59872e-014 -179.96 -9.58609e-005 0.00037101 4.9071 -0.00430298 2.38461e-007 -11.6563 -0.277888 1.27586 5.56426 -1.28359 0.00025465 -11.253 -4.27097 -2.68573 2.79365 -0.0019989 2.38428e-007 -17.9159 8.01585 -10.4803 2.79272 2.28882e-005 6.05738e-013 25.19 0.128265 14.0284 4.19086 0.0665665 -8.27835e-010 -177.009 -0.0355835 -179.999 6.95116 -2.28882e-005 1.22569e-013 -4.41086e-006 1.00115e-005 4.36852e-008 
